<svg width="23" height="18" fill="none" xmlns="http://www.w3.org/2000/svg"><path d="M1 9c0 6.118 2.47 8 10.5 8S22 15.118 22 9c0-2.893-.552-4.838-1.983-6.086C18.42 1.524 15.733 1 11.5 1s-6.921.523-8.517 1.914C1.553 4.162 1 6.107 1 9z" fill="#000"/><path d="M20.017 2.914C18.42 1.524 15.733 1 11.5 1s-6.921.523-8.517 1.914m17.034 0C21.447 4.162 22 6.107 22 9c0 6.118-2.47 8-10.5 8S1 15.118 1 9c0-2.893.552-4.838 1.983-6.086m17.034 0l-6.954 6.71a2.268 2.268 0 01-3.126 0l-6.954-6.71" stroke="#E9EDF8" stroke-linecap="round" stroke-linejoin="round"/></svg>