<svg width="22" height="18" fill="none" xmlns="http://www.w3.org/2000/svg"><path d="M3.295 3.295l-.503-.557.503.557zm9.12 6.29l-.531-.53.53.53zM11 15.75c-3.626 0-5.762-.453-7.01-1.438-1.188-.938-1.74-2.51-1.74-5.312H.75c0 2.933.566 5.112 2.311 6.49 1.687 1.331 4.3 1.76 7.939 1.76v-1.5zM19.75 9c0 2.802-.552 4.374-1.74 5.312-1.248.985-3.384 1.438-7.01 1.438v1.5c3.638 0 6.252-.429 7.939-1.76 1.745-1.378 2.311-3.557 2.311-6.49h-1.5zM11 2.25c3.829 0 5.99.506 7.203 1.601l1.005-1.113C17.533 1.225 14.831.75 11 .75v1.5zm7.203 1.601c1.052.95 1.547 2.497 1.547 5.149h1.5c0-2.772-.504-4.873-2.042-6.262l-1.005 1.113zM2.25 9c0-2.652.495-4.199 1.547-5.149L2.792 2.738C1.254 4.127.75 6.228.75 9h1.5zm1.547-5.149C5.01 2.756 7.171 2.25 11 2.25V.75c-3.83 0-6.533.475-8.208 1.988l1.005 1.113zm5.258 6.265a2.75 2.75 0 003.89 0l-1.061-1.06a1.25 1.25 0 01-1.768 0l-1.06 1.06zm-6.29-6.291l6.29 6.291 1.061-1.06-6.291-6.292-1.06 1.06zm10.18 6.291l6.29-6.291-1.06-1.06-6.291 6.29 1.06 1.061z" fill="#fff"/></svg>