<svg width="18" height="20" fill="none" xmlns="http://www.w3.org/2000/svg"><path d="M9.816 18.608l.34.668-.34-.668zm-1.632 0l-.34.668.34-.668zM16.25 9c0 3.733-2.852 6.94-6.775 8.94l.682 1.336C14.304 17.16 17.75 13.553 17.75 9h-1.5zm-7.725 8.94C4.602 15.94 1.75 12.733 1.75 9H.25c0 4.553 3.446 8.161 7.593 10.276l.682-1.336zM1.75 9A7.25 7.25 0 019 1.75V.25A8.75 8.75 0 00.25 9h1.5zM9 1.75A7.25 7.25 0 0116.25 9h1.5A8.75 8.75 0 009 .25v1.5zm.475 16.19a1.046 1.046 0 01-.95 0l-.682 1.336a2.55 2.55 0 002.314 0l-.682-1.336zM11.25 9A2.25 2.25 0 019 11.25v1.5A3.75 3.75 0 0012.75 9h-1.5zM9 11.25A2.25 2.25 0 016.75 9h-1.5A3.75 3.75 0 009 12.75v-1.5zM6.75 9A2.25 2.25 0 019 6.75v-1.5A3.75 3.75 0 005.25 9h1.5zM9 6.75A2.25 2.25 0 0111.25 9h1.5A3.75 3.75 0 009 5.25v1.5z" fill="#fff"/></svg>