<svg width="22" height="22" fill="none" xmlns="http://www.w3.org/2000/svg"><path d="M7.2 14.799l-.53.53.53-.53zM2.01 3.723l.61.436a.751.751 0 00.043-.066l-.652-.37zm4.865-1.589l.476-.579-.001-.001-.475.58zm12.99 12.99l.581-.474-.001-.002-.58.477zm-1.587 4.865l-.37-.653a.732.732 0 00-.067.043l.437.61zM7.73 14.269C4.323 10.86 2.94 8.452 2.465 6.843c-.463-1.568-.067-2.372.156-2.684L1.4 3.287c-.505.706-.963 1.991-.374 3.981.577 1.95 2.153 4.57 5.643 8.061l1.06-1.06zM2.663 4.093c-.007.013.123-.194.371-.486a5.28 5.28 0 01.95-.885c.381-.268.774-.44 1.157-.468.36-.026.78.068 1.258.46l.95-1.16C6.596.935 5.802.702 5.033.758c-.746.055-1.397.376-1.911.737-1.012.711-1.679 1.71-1.763 1.858l1.305.74zm3.735-1.38c1.497 1.233 2.037 2.052 2.206 2.602.152.496.038.875-.198 1.425-.22.516-.62 1.288-.512 2.239.109.969.706 1.976 1.98 3.178l1.03-1.091c-1.17-1.104-1.469-1.803-1.52-2.255-.053-.471.124-.834.401-1.48.263-.612.57-1.422.253-2.456-.3-.98-1.121-2.03-2.687-3.32l-.953 1.158zm3.477 9.444c1.277 1.204 2.316 1.745 3.28 1.834.947.088 1.7-.291 2.2-.497.52-.214.87-.308 1.345-.145.541.187 1.35.75 2.587 2.253l1.158-.954c-1.285-1.56-2.311-2.39-3.256-2.717-1.01-.348-1.798-.074-2.405.176-.627.258-.992.437-1.491.39-.484-.044-1.221-.33-2.389-1.431l-1.03 1.09zm9.41 3.443c.393.48.487.9.46 1.259-.027.383-.199.776-.467 1.158-.266.379-.6.706-.884.949-.293.248-.499.378-.485.37l.738 1.306c.148-.084 1.147-.751 1.858-1.763.361-.514.682-1.165.737-1.91.056-.77-.177-1.564-.796-2.32l-1.16.951zm-1.444 3.779c-.312.223-1.115.62-2.684.156-1.609-.476-4.018-1.858-7.426-5.266l-1.06 1.06c3.49 3.491 6.11 5.068 8.06 5.644 1.992.589 3.277.13 3.983-.374l-.872-1.22z" fill="#fff"/></svg>